<mxfile host="app.diagrams.net" agent="Mozilla/5.0 (Windows NT 10.0; Win64; x64) AppleWebKit/537.36 (KHTML, like Gecko) Chrome/140.0.0.0 Safari/537.36" version="28.2.4">
  <diagram name="PÃ¡gina-1" id="8CW3X3ESC0556H4nnPNx">
    <mxGraphModel dx="872" dy="431" grid="1" gridSize="10" guides="1" tooltips="1" connect="1" arrows="1" fold="1" page="1" pageScale="1" pageWidth="827" pageHeight="1169" math="0" shadow="0">
      <root>
        <mxCell id="0" />
        <mxCell id="1" parent="0" />
        <mxCell id="7XIaWOpIJSHULv4Y8Av8-27" style="edgeStyle=orthogonalEdgeStyle;rounded=0;orthogonalLoop=1;jettySize=auto;html=1;exitX=0;exitY=0.5;exitDx=0;exitDy=0;" edge="1" parent="1" source="7XIaWOpIJSHULv4Y8Av8-7" target="7XIaWOpIJSHULv4Y8Av8-8">
          <mxGeometry relative="1" as="geometry" />
        </mxCell>
        <mxCell id="7XIaWOpIJSHULv4Y8Av8-28" style="edgeStyle=orthogonalEdgeStyle;rounded=0;orthogonalLoop=1;jettySize=auto;html=1;exitX=1;exitY=0.5;exitDx=0;exitDy=0;" edge="1" parent="1" source="7XIaWOpIJSHULv4Y8Av8-7" target="7XIaWOpIJSHULv4Y8Av8-21">
          <mxGeometry relative="1" as="geometry" />
        </mxCell>
        <mxCell id="7XIaWOpIJSHULv4Y8Av8-7" value="&lt;p style=&quot;margin:0px;margin-top:4px;text-align:center;&quot;&gt;&lt;b&gt;Iphone&lt;/b&gt;&lt;/p&gt;" style="verticalAlign=top;align=left;overflow=fill;html=1;whiteSpace=wrap;" vertex="1" parent="1">
          <mxGeometry x="330" y="60" width="140" height="60" as="geometry" />
        </mxCell>
        <mxCell id="7XIaWOpIJSHULv4Y8Av8-8" value="ReprodutorMusical" style="swimlane;fontStyle=1;align=center;verticalAlign=top;childLayout=stackLayout;horizontal=1;startSize=26;horizontalStack=0;resizeParent=1;resizeParentMax=0;resizeLast=0;collapsible=1;marginBottom=0;whiteSpace=wrap;html=1;" vertex="1" parent="1">
          <mxGeometry x="40" y="200" width="220" height="94" as="geometry" />
        </mxCell>
        <mxCell id="7XIaWOpIJSHULv4Y8Av8-10" value="" style="line;strokeWidth=1;fillColor=none;align=left;verticalAlign=middle;spacingTop=-1;spacingLeft=3;spacingRight=3;rotatable=0;labelPosition=right;points=[];portConstraint=eastwest;strokeColor=inherit;" vertex="1" parent="7XIaWOpIJSHULv4Y8Av8-8">
          <mxGeometry y="26" width="220" height="8" as="geometry" />
        </mxCell>
        <mxCell id="7XIaWOpIJSHULv4Y8Av8-11" value="+ tocar()&lt;div&gt;+ pausar()&lt;/div&gt;&lt;div&gt;+ selecionarMusica(String musica)&lt;/div&gt;" style="text;strokeColor=none;fillColor=none;align=left;verticalAlign=top;spacingLeft=4;spacingRight=4;overflow=hidden;rotatable=0;points=[[0,0.5],[1,0.5]];portConstraint=eastwest;whiteSpace=wrap;html=1;" vertex="1" parent="7XIaWOpIJSHULv4Y8Av8-8">
          <mxGeometry y="34" width="220" height="60" as="geometry" />
        </mxCell>
        <mxCell id="7XIaWOpIJSHULv4Y8Av8-13" value="AparelhoTelefonico" style="swimlane;fontStyle=1;align=center;verticalAlign=top;childLayout=stackLayout;horizontal=1;startSize=26;horizontalStack=0;resizeParent=1;resizeParentMax=0;resizeLast=0;collapsible=1;marginBottom=0;whiteSpace=wrap;html=1;" vertex="1" parent="1">
          <mxGeometry x="330" y="200" width="160" height="100" as="geometry" />
        </mxCell>
        <mxCell id="7XIaWOpIJSHULv4Y8Av8-15" value="" style="line;strokeWidth=1;fillColor=none;align=left;verticalAlign=middle;spacingTop=-1;spacingLeft=3;spacingRight=3;rotatable=0;labelPosition=right;points=[];portConstraint=eastwest;strokeColor=inherit;" vertex="1" parent="7XIaWOpIJSHULv4Y8Av8-13">
          <mxGeometry y="26" width="160" height="8" as="geometry" />
        </mxCell>
        <mxCell id="7XIaWOpIJSHULv4Y8Av8-16" value="+ ligar(String numero)&lt;div&gt;+ atender()&lt;/div&gt;&lt;div&gt;+ iniciarCorreioVoz()&lt;/div&gt;" style="text;strokeColor=none;fillColor=none;align=left;verticalAlign=top;spacingLeft=4;spacingRight=4;overflow=hidden;rotatable=0;points=[[0,0.5],[1,0.5]];portConstraint=eastwest;whiteSpace=wrap;html=1;" vertex="1" parent="7XIaWOpIJSHULv4Y8Av8-13">
          <mxGeometry y="34" width="160" height="66" as="geometry" />
        </mxCell>
        <mxCell id="7XIaWOpIJSHULv4Y8Av8-21" value="NavegadorInternet" style="swimlane;fontStyle=1;align=center;verticalAlign=top;childLayout=stackLayout;horizontal=1;startSize=26;horizontalStack=0;resizeParent=1;resizeParentMax=0;resizeLast=0;collapsible=1;marginBottom=0;whiteSpace=wrap;html=1;" vertex="1" parent="1">
          <mxGeometry x="610" y="205" width="160" height="90" as="geometry" />
        </mxCell>
        <mxCell id="7XIaWOpIJSHULv4Y8Av8-23" value="" style="line;strokeWidth=1;fillColor=none;align=left;verticalAlign=middle;spacingTop=-1;spacingLeft=3;spacingRight=3;rotatable=0;labelPosition=right;points=[];portConstraint=eastwest;strokeColor=inherit;" vertex="1" parent="7XIaWOpIJSHULv4Y8Av8-21">
          <mxGeometry y="26" width="160" height="8" as="geometry" />
        </mxCell>
        <mxCell id="7XIaWOpIJSHULv4Y8Av8-24" value="+ exibirPagina(String url)&lt;div&gt;+ adicionarNovaAba()&lt;/div&gt;&lt;div&gt;+ atualizarPagina()&lt;/div&gt;" style="text;strokeColor=none;fillColor=none;align=left;verticalAlign=top;spacingLeft=4;spacingRight=4;overflow=hidden;rotatable=0;points=[[0,0.5],[1,0.5]];portConstraint=eastwest;whiteSpace=wrap;html=1;" vertex="1" parent="7XIaWOpIJSHULv4Y8Av8-21">
          <mxGeometry y="34" width="160" height="56" as="geometry" />
        </mxCell>
        <mxCell id="7XIaWOpIJSHULv4Y8Av8-26" style="edgeStyle=orthogonalEdgeStyle;rounded=0;orthogonalLoop=1;jettySize=auto;html=1;exitX=0.5;exitY=1;exitDx=0;exitDy=0;entryX=0.438;entryY=0.03;entryDx=0;entryDy=0;entryPerimeter=0;" edge="1" parent="1" source="7XIaWOpIJSHULv4Y8Av8-7" target="7XIaWOpIJSHULv4Y8Av8-13">
          <mxGeometry relative="1" as="geometry" />
        </mxCell>
      </root>
    </mxGraphModel>
  </diagram>
</mxfile>
